<?xml version="1.0" encoding="UTF-8" standalone="no"?>
<!DOCTYPE svg PUBLIC "-//W3C//DTD SVG 1.1//EN" "http://www.w3.org/Graphics/SVG/1.1/DTD/svg11.dtd">
<svg width="100%" height="100%" viewBox="0 0 992 825" version="1.1" xmlns="http://www.w3.org/2000/svg" xmlns:xlink="http://www.w3.org/1999/xlink" xml:space="preserve" xmlns:serif="http://www.serif.com/" style="fill-rule:evenodd;clip-rule:evenodd;stroke-linejoin:round;stroke-miterlimit:2;">
    <g transform="matrix(1,0,0,1,-2250,-121.999674)">
        <g transform="matrix(1.054688,0,0,1.054688,2205.992599,-5.500326)">
            <g transform="matrix(1.871195,0,0,2.089454,-545.960608,-560.822264)">
                <path d="M413.228,574.885L314.07,492.943L427.99,417.39L457.52,439.571L378.907,492.943L448.54,549.296L413.228,574.885Z" style="fill:white;"/>
            </g>
            <g transform="matrix(1.871195,0,0,2.089454,-545.960608,-560.822264)">
                <path d="M465.935,392.225L565.393,326.263L665.084,392.379L635.419,413.876L565.393,366.334L495.597,413.72L465.935,392.225Z" style="fill:white;"/>
            </g>
            <g transform="matrix(1.871195,0,0,2.089454,-545.960608,-560.822264)">
                <path d="M703.135,417.615L816.716,492.943L717.766,574.713L682.457,549.126L751.879,492.943L673.601,439.799L703.135,417.615Z" style="fill:rgb(224,157,54);"/>
            </g>
            <g transform="matrix(1.871195,0,0,2.089454,-545.960608,-560.822264)">
                <path d="M679.517,606.321L565.393,700.629L451.573,606.572L486.705,580.183L565.393,643.865L644.388,579.935L679.517,606.321Z" style="fill:white;"/>
            </g>
        </g>
    </g>
</svg>
